# xmcd
#
# Track frame offsets:
#	150
#	12580
#	22202
#	38801
#	53129
#	67557
#	78352
#	96819
#	109789
#	120397
#	136011
#	148838
#	161602
#
# Disc length: 2341
#
# Revision: 2
# Processed by: cddbd v1.5.1PL0 Copyright (c) Steve Scherf et al.
# Submitted via: EasyCDDAExtractor 6.2.0.3
# Normalized: r1:DSETVAR1
#
DISCID=a409230d
DTITLE=Various Artist - Four Women Box Set
DYEAR=1900
DGENRE=Blues
TTITLE0=Nina Simone - High Priestess of Soul - A Monster
TTITLE1=High Priestess of Soul - Brown Eyed Handsome Man
TTITLE2=High Priestess of Soul - Come Ye
TTITLE3=High Priestess of Soul - Don't You Pay Them No Mind
TTITLE4=High Priestess of Soul - He Ain't Comin' Home No More
TTITLE5=High Priestess of Soul - I Hold No Grudge
TTITLE6=High Priestess of Soul - I Love My Baby
TTITLE7=High Priestess of Soul - I'm Going Back Home
TTITLE8=High Priestess of Soul - I'm Gonna Leave You
TTITLE9=High Priestess of Soul - Keeper of the Flame
TTITLE10=High Priestess of Soul - Take Me to the Water
TTITLE11=High Priestess of Soul - The Gal From Joe's
TTITLE12=High Priestess of Soul - Work Song
EXTD=
EXTT0=
EXTT1=
EXTT2=
EXTT3=
EXTT4=
EXTT5=
EXTT6=
EXTT7=
EXTT8=
EXTT9=
EXTT10=
EXTT11=
EXTT12=
PLAYORDER=
